<?xml version="1.0" encoding="utf-8"?>
<!-- Generator: Adobe Illustrator 18.0.0, SVG Export Plug-In . SVG Version: 6.00 Build 0)  -->
<!DOCTYPE svg PUBLIC "-//W3C//DTD SVG 1.1//EN" "http://www.w3.org/Graphics/SVG/1.1/DTD/svg11.dtd">
<svg version="1.1" id="Layer_1" xmlns="http://www.w3.org/2000/svg" xmlns:xlink="http://www.w3.org/1999/xlink" x="0px" y="0px"
	 viewBox="0 0 73 100" enable-background="new 0 0 73 100" xml:space="preserve">
<g>
	<g>
		<g>
			<g>
				<g>
					<polygon fill="#00B6F1" points="31.2,9.4 23.4,39.9 31.2,47.5 					"/>
					<polygon fill="#00B3F0" points="23.4,39.9 10.7,47.5 31.2,47.5 					"/>
					<polygon fill="#00A6E9" points="31.2,9.4 23.4,39.9 10.7,47.5 					"/>
				</g>
				<g>
					<polygon fill="#EF5BA1" points="39.3,9.4 47.1,39.9 39.3,47.5 					"/>
					<polygon fill="#EE3D96" points="47.1,39.9 59.8,47.5 39.3,47.5 					"/>
					<polygon fill="#EC008C" points="39.3,9.4 47.1,39.9 59.8,47.5 					"/>
				</g>
				<g>
					<polygon fill="#FFF33E" points="31.2,93.6 23.4,63.1 31.2,55.5 					"/>
					<polygon fill="#FFED2B" points="23.4,63.1 10.7,55.5 31.2,55.5 					"/>
					<polygon fill="#FFE600" points="31.2,93.6 23.4,63.1 10.7,55.5 					"/>
				</g>
				<g>
					<polygon fill="#58595B" points="39.3,93.6 47.1,63.1 39.3,55.5 					"/>
					<polygon fill="#414042" points="47.1,63.1 59.8,55.5 39.3,55.5 					"/>
					<polygon points="39.3,93.6 47.1,63.1 59.8,55.5 					"/>
				</g>
			</g>
			<rect x="34.9" y="6.9" width="0.7" height="89.2"/>
			<rect x="7" y="51.2" width="56.5" height="0.7"/>
			<path d="M35.2,60.7l-4.5-9.2l4.5-9.2l4.7,9.2L35.2,60.7z M31.6,51.5l3.7,7.6l3.8-7.6l-3.8-7.6L31.6,51.5z"/>
		</g>
	</g>
</g>
</svg>
